<svg xmlns="http://www.w3.org/2000/svg" xmlns:xlink="http://www.w3.org/1999/xlink" width="25" height="25" viewBox="0 0 25 25" fill="none"><g opacity="1" transform="translate(0 0)  rotate(0 12.5 12.5)"><path id="路径 4" fill-rule="evenodd" style="fill:#00C878" transform="translate(1.6666666666666667 1.666666666666667)  rotate(0 10.833333333333334 10.833333333333334)" opacity="0.4" d="M10.83,0C4.85,0 0,4.85 0,10.83C0,16.82 4.85,21.67 10.83,21.67C16.82,21.67 21.67,16.82 21.67,10.83C21.67,4.85 16.82,0 10.83,0Z " /><path id="路径 4" fill-rule="evenodd" style="fill:#00C878" transform="translate(6.25 6.25)  rotate(0 6.25 6.25)" opacity="1" d="M6.25,0C2.8,0 0,2.8 0,6.25C0,9.7 2.8,12.5 6.25,12.5C9.7,12.5 12.5,9.7 12.5,6.25C12.5,2.8 9.7,0 6.25,0Z " /></g></svg>